<svg xmlns="http://www.w3.org/2000/svg" xmlns:xlink="http://www.w3.org/1999/xlink" viewBox="0 0 1412.56 2054.29"><defs><style>.cls-1{fill:url(#linear-gradient);}.cls-2{fill:url(#linear-gradient-2);}.cls-3{fill:url(#linear-gradient-3);}.cls-4{fill:url(#linear-gradient-4);}.cls-5{fill:url(#linear-gradient-5);}.cls-6{fill:#f4f4f4;}</style><linearGradient id="linear-gradient" x1="521.87" y1="929.89" x2="521.87" y2="70.42" gradientTransform="translate(526.92 -303.03) rotate(40)" gradientUnits="userSpaceOnUse"><stop offset="0" stop-color="#fff"/><stop offset="0.35" stop-color="#fefefe"/><stop offset="1" stop-color="#dddddc"/></linearGradient><linearGradient id="linear-gradient-2" x1="1004.94" y1="554.37" x2="1004.94" y2="270.89" xlink:href="#linear-gradient"/><linearGradient id="linear-gradient-3" x1="1287.85" y1="1418.32" x2="1287.85" y2="420.18" xlink:href="#linear-gradient"/><linearGradient id="linear-gradient-4" x1="923.19" y1="872.6" x2="923.19" y2="448.13" xlink:href="#linear-gradient"/><linearGradient id="linear-gradient-5" x1="1131.39" y1="1999.59" x2="1131.39" y2="1438.22" xlink:href="#linear-gradient"/></defs><g id="Layer_1" data-name="Layer 1"><path class="cls-1" d="M435,832.31,878.13,304.22a32,32,0,0,0-49-41.14A19.5,19.5,0,0,1,799.23,238l.24-.28,43.71-52.09a32,32,0,1,0-49-41.14l.17-.2a19.5,19.5,0,0,1-29.88-25.07l.24-.28,43.71-52.09a32,32,0,1,0-49-41.14L223.71,656.31C223.39,656.69,435,832.31,435,832.31Z" transform="translate(164.33 -14.29)"/><path class="cls-2" d="M975.38,796.48,1121.53,622.3a10.55,10.55,0,1,0-16.17-13.57,6.43,6.43,0,1,1-9.85-8.26l.07-.1L1110,583.19a10.55,10.55,0,1,0-16.17-13.57l.06-.06a6.43,6.43,0,0,1-9.86-8.27l.08-.1L1098.53,544a10.55,10.55,0,1,0-16.17-13.57l-176.68,208C905.57,738.56,975.38,796.48,975.38,796.48Z" transform="translate(164.33 -14.29)"/><path class="cls-3" d="M724.94,1712.94l514.6-613.29a37.16,37.16,0,0,0-56.93-47.77,22.65,22.65,0,0,1-34.7-29.11l.28-.33,50.76-60.5A37.16,37.16,0,0,0,1142,914.17l.2-.24a22.65,22.65,0,1,1-34.7-29.11l.28-.33L1158.55,824a37.17,37.17,0,0,0-56.94-47.78L479.54,1508.55C479.17,1509,724.94,1712.94,724.94,1712.94Z" transform="translate(164.33 -14.29)"/><path class="cls-4" d="M725.6,1002.07,944.44,741.26a15.8,15.8,0,0,0-24.21-20.32,9.63,9.63,0,1,1-14.75-12.38l.11-.14,21.59-25.72A15.8,15.8,0,1,0,903,662.38l.08-.1a9.63,9.63,0,0,1-14.76-12.38l.12-.14L910,624a15.8,15.8,0,1,0-24.21-20.31L621.24,915.15C621.08,915.34,725.6,1002.07,725.6,1002.07Z" transform="translate(164.33 -14.29)"/><path class="cls-5" d="M177.56,2013.16,467,1668.24a20.9,20.9,0,1,0-32-26.87A12.74,12.74,0,0,1,415.45,1625l.16-.19,28.55-34a20.9,20.9,0,1,0-32-26.87l.11-.13a12.74,12.74,0,1,1-19.52-16.38l.16-.18,28.55-34a20.9,20.9,0,0,0-32-26.87L39.55,1898.21C39.34,1898.46,177.56,2013.16,177.56,2013.16Z" transform="translate(164.33 -14.29)"/></g><g id="Layer_3" data-name="Layer 3"><path class="cls-6" d="M579.9,1984.8,816,1703.48a5.71,5.71,0,1,0-8.75-7.34L571.6,1977.81Z" transform="translate(164.33 -14.29)"/><path class="cls-6" d="M604.92,2005.7,841,1724.38a5.71,5.71,0,1,0-8.75-7.34L596.62,1998.71Z" transform="translate(164.33 -14.29)"/><path class="cls-6" d="M629.9,2026.66,866,1745.33a5.71,5.71,0,0,0-8.75-7.34L621.6,2019.67Z" transform="translate(164.33 -14.29)"/><path class="cls-6" d="M654.87,2047.62l236.06-281.33a5.71,5.71,0,0,0-8.75-7.34L646.57,2040.63Z" transform="translate(164.33 -14.29)"/><path class="cls-6" d="M679.85,2068.57l236.06-281.32a5.71,5.71,0,1,0-8.75-7.34L671.55,2061.58Z" transform="translate(164.33 -14.29)"/><path class="cls-6" d="M-156,1589.21,80,1307.88a5.71,5.71,0,1,0-8.75-7.34s-236.35,282.55-235.61,281.68Z" transform="translate(164.33 -14.29)"/><path class="cls-6" d="M-131,1610.11l236.06-281.33a5.71,5.71,0,1,0-8.75-7.34L-139.3,1603.12Z" transform="translate(164.33 -14.29)"/><path class="cls-6" d="M-106,1631.06,130,1349.74a5.71,5.71,0,0,0-8.75-7.35l-235.61,281.68Z" transform="translate(164.33 -14.29)"/><path class="cls-6" d="M-81,1652,155,1370.69a5.71,5.71,0,0,0-8.75-7.34L-89.35,1645Z" transform="translate(164.33 -14.29)"/><path class="cls-6" d="M-56.07,1673,180,1391.65a5.71,5.71,0,1,0-8.75-7.34S-65.11,1666.86-64.37,1666Z" transform="translate(164.33 -14.29)"/></g></svg>